<?xml version="1.0" standalone="no"?>
<!DOCTYPE svg PUBLIC "-//W3C//DTD SVG 20010904//EN"
 "http://www.w3.org/TR/2001/REC-SVG-20010904/DTD/svg10.dtd">
<svg version="1.0" xmlns="http://www.w3.org/2000/svg"
 width="400.000000pt" height="400.000000pt" viewBox="0 0 400.000000 400.000000"
 preserveAspectRatio="xMidYMid meet">
<metadata>
Created by potrace 1.11, written by Peter Selinger 2001-2013
</metadata>
<g transform="translate(0.000000,400.000000) scale(0.100000,-0.100000)"
fill="#000000" stroke="none">
<path d="M1715 3974 c-356 -54 -686 -196 -970 -419 -92 -72 -270 -252 -337
-340 -187 -247 -309 -515 -375 -824 -26 -118 -28 -141 -28 -381 0 -240 2 -263
28 -381 66 -309 188 -577 375 -824 67 -88 245 -268 337 -340 287 -225 618
-367 976 -419 140 -21 428 -21 568 0 358 52 689 194 976 419 92 72 270 252
337 340 187 248 313 524 373 820 23 112 25 145 25 385 0 240 -2 273 -25 385
-60 296 -186 572 -373 820 -67 88 -245 268 -337 340 -287 225 -618 367 -976
419 -132 20 -447 20 -574 0z"/>
</g>
</svg>
